<?xml version="1.0" encoding="UTF-8" standalone="no"?>
<!-- Created with Inkscape (http://www.inkscape.org/) -->

<svg
   width="979.99988mm"
   height="284.99966mm"
   viewBox="0 0 979.99988 284.99966"
   version="1.1"
   id="svg1"
   xml:space="preserve"
   inkscape:version="1.4 (e7c3feb100, 2024-10-09)"
   sodipodi:docname="cb_ble_py.svg"
   xmlns:inkscape="http://www.inkscape.org/namespaces/inkscape"
   xmlns:sodipodi="http://sodipodi.sourceforge.net/DTD/sodipodi-0.dtd"
   xmlns:xlink="http://www.w3.org/1999/xlink"
   xmlns="http://www.w3.org/2000/svg"
   xmlns:svg="http://www.w3.org/2000/svg"><sodipodi:namedview
     id="namedview1"
     pagecolor="#ffffff"
     bordercolor="#000000"
     borderopacity="0.25"
     inkscape:showpageshadow="2"
     inkscape:pageopacity="0.0"
     inkscape:pagecheckerboard="0"
     inkscape:deskcolor="#d1d1d1"
     inkscape:document-units="mm"
     showgrid="true"
     inkscape:zoom="0.33986041"
     inkscape:cx="1981.696"
     inkscape:cy="653.20936"
     inkscape:window-width="1920"
     inkscape:window-height="1131"
     inkscape:window-x="0"
     inkscape:window-y="0"
     inkscape:window-maximized="1"
     inkscape:current-layer="svg1"
     showguides="true"><inkscape:grid
       id="grid1"
       units="mm"
       originx="430"
       originy="169.99991"
       spacingx="0.99999998"
       spacingy="1"
       empcolor="#0099e5"
       empopacity="0.30196078"
       color="#0099e5"
       opacity="0.14901961"
       empspacing="5"
       dotted="false"
       gridanglex="30"
       gridanglez="30"
       visible="true" /><sodipodi:guide
       position="132.5,285.99977"
       orientation="1,0"
       id="guide24"
       inkscape:locked="false" /></sodipodi:namedview><defs
     id="defs1"><marker
       style="overflow:visible"
       id="RoundedArrow"
       refX="0"
       refY="0"
       orient="auto-start-reverse"
       inkscape:stockid="Rounded arrow"
       markerWidth="1"
       markerHeight="1"
       viewBox="0 0 1 1"
       inkscape:isstock="true"
       inkscape:collect="always"
       preserveAspectRatio="xMidYMid"><path
         transform="scale(0.7)"
         d="m -0.21114562,-4.1055728 6.42229122,3.21114561 a 1,1 90 0 1 0,1.78885438 L -0.21114562,4.1055728 A 1.236068,1.236068 31.717474 0 1 -2,3 v -6 a 1.236068,1.236068 148.28253 0 1 1.78885438,-1.1055728 z"
         style="fill:context-stroke;fill-rule:evenodd;stroke:none"
         id="path8" /></marker><linearGradient
       inkscape:collect="always"
       xlink:href="#linearGradient4689"
       id="linearGradient1478"
       gradientUnits="userSpaceOnUse"
       gradientTransform="matrix(0.14883897,0,0,0.15027592,733.74214,143.61706)"
       x1="26.648937"
       y1="20.603781"
       x2="135.66525"
       y2="114.39767" /><linearGradient
       id="linearGradient4689"><stop
         style="stop-color:#5a9fd4;stop-opacity:1;"
         offset="0"
         id="stop4691" /><stop
         style="stop-color:#306998;stop-opacity:1;"
         offset="1"
         id="stop4693" /></linearGradient><linearGradient
       inkscape:collect="always"
       xlink:href="#linearGradient4671"
       id="linearGradient1475"
       gradientUnits="userSpaceOnUse"
       gradientTransform="matrix(0.14883897,0,0,0.15027592,733.74214,143.61706)"
       x1="150.96111"
       y1="192.35176"
       x2="112.03144"
       y2="137.27299" /><linearGradient
       id="linearGradient4671"><stop
         style="stop-color:#ffd43b;stop-opacity:1;"
         offset="0"
         id="stop4673" /><stop
         style="stop-color:#ffe873;stop-opacity:1"
         offset="1"
         id="stop4675" /></linearGradient></defs><g
     id="g1"
     inkscape:label="robot"
     transform="translate(-10.000001,-10.000093)"><g
       inkscape:groupmode="layer"
       id="layer2"
       inkscape:label="pcb"
       style="display:inline;opacity:1"
       transform="translate(46.126966,4.8971866)"
       inkscape:highlight-color="#09a20c"><path
         id="rect1"
         style="display:inline;fill:#39aa53;fill-opacity:1;stroke:none;stroke-width:0.79375;stroke-linecap:round"
         inkscape:label="board"
         d="M 23.872977,5.102906 V 290.10256 H 168.87291 V 5.102906 Z M 73.873026,75.102768 H 88.873144 V 105.103 H 73.873026 Z m 30.000234,0 h 14.9996 V 105.103 h -14.9996 z M 73.873026,220.1027 h 15.000118 v 30.00024 H 73.873026 Z m 30.000234,0 h 14.9996 v 30.00024 h -14.9996 z" /><g
         id="g15"
         inkscape:label="nrf52840"><rect
           style="opacity:1;fill:#9dc34b;fill-opacity:1;stroke:none;stroke-width:0.79375;stroke-linecap:round"
           id="rect2"
           width="37.999996"
           height="28"
           x="23.873039"
           y="122.10281" /><rect
           style="opacity:1;fill:#898989;fill-opacity:1;stroke:none;stroke-width:0.79375;stroke-linecap:round"
           id="rect3"
           width="26.999998"
           height="22"
           x="31.873034"
           y="125.10281" /><rect
           style="fill:#898989;fill-opacity:1;stroke:none;stroke-width:0.79375;stroke-linecap:round"
           id="rect3-6"
           width="4.0000005"
           height="20"
           x="24.873034"
           y="126.10281" /><g
           id="g5"><rect
             style="opacity:1;fill:#898989;fill-opacity:1;stroke:none;stroke-width:0.79375;stroke-linecap:round"
             id="rect4"
             width="2"
             height="3"
             x="30.873032"
             y="148.10281" /><rect
             style="fill:#898989;fill-opacity:1;stroke:none;stroke-width:0.79375;stroke-linecap:round"
             id="rect4-6"
             width="2"
             height="3"
             x="33.873032"
             y="148.10281" /><rect
             style="fill:#898989;fill-opacity:1;stroke:none;stroke-width:0.79375;stroke-linecap:round"
             id="rect4-2"
             width="2"
             height="3"
             x="36.873032"
             y="148.10281" /><rect
             style="fill:#898989;fill-opacity:1;stroke:none;stroke-width:0.79375;stroke-linecap:round"
             id="rect4-3"
             width="2"
             height="3"
             x="39.873032"
             y="148.10281" /><rect
             style="fill:#898989;fill-opacity:1;stroke:none;stroke-width:0.79375;stroke-linecap:round"
             id="rect4-26"
             width="2"
             height="3"
             x="42.873032"
             y="148.10281" /><rect
             style="fill:#898989;fill-opacity:1;stroke:none;stroke-width:0.79375;stroke-linecap:round"
             id="rect4-9"
             width="2"
             height="3"
             x="45.873032"
             y="148.10281" /><rect
             style="fill:#898989;fill-opacity:1;stroke:none;stroke-width:0.79375;stroke-linecap:round"
             id="rect4-37"
             width="2"
             height="3"
             x="48.873035"
             y="148.10281" /><rect
             style="fill:#898989;fill-opacity:1;stroke:none;stroke-width:0.79375;stroke-linecap:round"
             id="rect4-28"
             width="2"
             height="3"
             x="51.873035"
             y="148.10281" /><rect
             style="fill:#898989;fill-opacity:1;stroke:none;stroke-width:0.79375;stroke-linecap:round"
             id="rect4-61"
             width="2"
             height="3"
             x="54.873035"
             y="148.10281" /><rect
             style="fill:#898989;fill-opacity:1;stroke:none;stroke-width:0.79375;stroke-linecap:round"
             id="rect4-1"
             width="2"
             height="3"
             x="57.873035"
             y="148.10281" /></g><g
           id="g4"
           transform="translate(0,0.5)"><rect
             style="fill:#898989;fill-opacity:1;stroke:none;stroke-width:0.79375;stroke-linecap:round"
             id="rect4-8"
             width="2"
             height="3"
             x="145.10281"
             y="-62.873035"
             transform="rotate(90)" /><rect
             style="fill:#898989;fill-opacity:1;stroke:none;stroke-width:0.79375;stroke-linecap:round"
             id="rect4-8-3"
             width="2"
             height="3"
             x="142.08405"
             y="-62.873035"
             transform="rotate(90)" /><rect
             style="fill:#898989;fill-opacity:1;stroke:none;stroke-width:0.79375;stroke-linecap:round"
             id="rect4-8-1"
             width="2"
             height="3"
             x="139.03397"
             y="-62.873035"
             transform="rotate(90)" /><rect
             style="fill:#898989;fill-opacity:1;stroke:none;stroke-width:0.79375;stroke-linecap:round"
             id="rect4-8-7"
             width="2"
             height="3"
             x="136.10281"
             y="-62.873035"
             transform="rotate(90)" /><rect
             style="fill:#898989;fill-opacity:1;stroke:none;stroke-width:0.79375;stroke-linecap:round"
             id="rect4-8-78"
             width="2"
             height="3"
             x="133.10281"
             y="-62.873035"
             transform="rotate(90)" /><rect
             style="fill:#898989;fill-opacity:1;stroke:none;stroke-width:0.79375;stroke-linecap:round"
             id="rect4-8-4"
             width="2"
             height="3"
             x="130.10281"
             y="-62.873035"
             transform="rotate(90)" /><rect
             style="fill:#898989;fill-opacity:1;stroke:none;stroke-width:0.79375;stroke-linecap:round"
             id="rect4-8-9"
             width="2"
             height="3"
             x="127.10281"
             y="-62.873035"
             transform="rotate(90)" /><rect
             style="fill:#898989;fill-opacity:1;stroke:none;stroke-width:0.79375;stroke-linecap:round"
             id="rect4-8-8"
             width="2"
             height="3"
             x="124.10281"
             y="-62.873035"
             transform="rotate(90)" /></g><g
           id="g14"
           transform="translate(2.4277583e-6,-27.000001)"><rect
             style="opacity:1;fill:#898989;fill-opacity:1;stroke:none;stroke-width:0.79375;stroke-linecap:round"
             id="rect5"
             width="2"
             height="3"
             x="30.873032"
             y="148.10281" /><rect
             style="fill:#898989;fill-opacity:1;stroke:none;stroke-width:0.79375;stroke-linecap:round"
             id="rect6"
             width="2"
             height="3"
             x="33.873032"
             y="148.10281" /><rect
             style="fill:#898989;fill-opacity:1;stroke:none;stroke-width:0.79375;stroke-linecap:round"
             id="rect7"
             width="2"
             height="3"
             x="36.873032"
             y="148.10281" /><rect
             style="fill:#898989;fill-opacity:1;stroke:none;stroke-width:0.79375;stroke-linecap:round"
             id="rect8"
             width="2"
             height="3"
             x="39.873032"
             y="148.10281" /><rect
             style="fill:#898989;fill-opacity:1;stroke:none;stroke-width:0.79375;stroke-linecap:round"
             id="rect9"
             width="2"
             height="3"
             x="42.873032"
             y="148.10281" /><rect
             style="fill:#898989;fill-opacity:1;stroke:none;stroke-width:0.79375;stroke-linecap:round"
             id="rect10"
             width="2"
             height="3"
             x="45.873032"
             y="148.10281" /><rect
             style="fill:#898989;fill-opacity:1;stroke:none;stroke-width:0.79375;stroke-linecap:round"
             id="rect11"
             width="2"
             height="3"
             x="48.873035"
             y="148.10281" /><rect
             style="fill:#898989;fill-opacity:1;stroke:none;stroke-width:0.79375;stroke-linecap:round"
             id="rect12"
             width="2"
             height="3"
             x="51.873035"
             y="148.10281" /><rect
             style="fill:#898989;fill-opacity:1;stroke:none;stroke-width:0.79375;stroke-linecap:round"
             id="rect13"
             width="2"
             height="3"
             x="54.873035"
             y="148.10281" /><rect
             style="fill:#898989;fill-opacity:1;stroke:none;stroke-width:0.79375;stroke-linecap:round"
             id="rect14"
             width="2"
             height="3"
             x="57.873035"
             y="148.10281" /></g></g><rect
         style="opacity:1;fill:#898989;fill-opacity:1;stroke:none;stroke-width:0.79375;stroke-linecap:round"
         id="rect3-0"
         width="15.999997"
         height="17"
         x="20.873035"
         y="8.1028137"
         inkscape:label="usb" /><rect
         style="opacity:1;fill:#000000;fill-opacity:1;stroke:none;stroke-width:0.79375;stroke-linecap:round"
         id="rect15"
         width="30.999998"
         height="20"
         x="146.87302"
         y="10.10281"
         inkscape:label="pwr" /><g
         id="g32"
         inkscape:label="screws"
         style="display:inline"><g
           id="g30"><circle
             style="opacity:1;fill:#918a85;fill-opacity:1;stroke:none;stroke-width:0.79375;stroke-linecap:round"
             id="path26"
             cx="157.87303"
             cy="108.10281"
             r="6" /><path
             style="opacity:1;fill:none;fill-opacity:1;stroke:#000000;stroke-width:1.5;stroke-linecap:round;stroke-dasharray:none"
             d="m 160.70145,105.27438 -5.65685,5.65685"
             id="path27" /><path
             style="opacity:1;fill:none;fill-opacity:1;stroke:#000000;stroke-width:1.5;stroke-linecap:round;stroke-dasharray:none"
             d="m 155.0446,105.27438 5.65686,5.65686"
             id="path28" /></g><g
           id="g31"><circle
             style="opacity:1;fill:#918a85;fill-opacity:1;stroke:none;stroke-width:0.79375;stroke-linecap:round"
             id="circle26"
             cx="157.87303"
             cy="216.10281"
             r="6" /><path
             style="opacity:1;fill:none;fill-opacity:1;stroke:#000000;stroke-width:1.5;stroke-linecap:round;stroke-dasharray:none"
             d="m 155.0446,218.93123 5.65685,-5.65685"
             id="path29" /><path
             style="opacity:1;fill:none;fill-opacity:1;stroke:#000000;stroke-width:1.5;stroke-linecap:round;stroke-dasharray:none"
             d="m 155.0446,213.27438 5.65687,5.65687"
             id="path30" /></g></g><g
         id="g27"
         inkscape:label="feather-header"
         style="display:none;fill:none"><rect
           style="fill:none;stroke:#ffffff;stroke-width:1;stroke-linecap:round;stroke-linejoin:round"
           id="rect25"
           width="83.000008"
           height="4.9999928"
           x="39.873039"
           y="196.10281"
           ry="0" /><rect
           style="fill:none;stroke:#ffffff;stroke-width:1;stroke-linecap:round;stroke-linejoin:round"
           id="rect27"
           width="61.000008"
           height="5.0000057"
           x="61.873039"
           y="155.10281"
           ry="0" /></g><g
         id="g33"
         inkscape:label="sw2"
         style="display:none"><rect
           style="fill:#898989;fill-opacity:1;stroke:none;stroke-width:1;stroke-linecap:round;stroke-linejoin:round"
           id="rect28"
           width="8"
           height="4.9999995"
           x="79.873039"
           y="128.60281" /><ellipse
           style="fill:#000000;fill-opacity:1;stroke:none;stroke-width:1;stroke-linecap:round;stroke-linejoin:round"
           id="path31"
           cx="83.873039"
           cy="131.10281"
           rx="1.5"
           ry="1.4999999" /></g></g><g
       inkscape:groupmode="layer"
       id="layer3"
       inkscape:label="wheels"
       transform="translate(46.126966,4.8971866)"
       sodipodi:insensitive="true"><rect
         style="opacity:1;fill:#8e8a87;fill-opacity:1;stroke:none;stroke-width:0.79375;stroke-linecap:round"
         id="rect17"
         width="28.000002"
         height="5.9999928"
         x="168.87303"
         y="227.10281"
         inkscape:label="axle-br" /><rect
         style="opacity:1;fill:#8e8a87;fill-opacity:1;stroke:none;stroke-width:0.79375;stroke-linecap:round"
         id="rect18"
         width="28.000002"
         height="5.9999928"
         x="-4.126966"
         y="227.10281"
         inkscape:label="axle-bl" /><rect
         style="opacity:1;fill:#8e8a87;fill-opacity:1;stroke:none;stroke-width:0.79375;stroke-linecap:round"
         id="rect19"
         width="28.000002"
         height="5.9999928"
         x="168.87303"
         y="87.102814"
         inkscape:label="axle-fr" /><rect
         style="opacity:1;fill:#8e8a87;fill-opacity:1;stroke:none;stroke-width:0.79375;stroke-linecap:round"
         id="rect16"
         width="28.000002"
         height="5.9999928"
         x="-4.126966"
         y="87.102814"
         inkscape:label="axle-fl"
         transform="translate(1.0208333e-6)" /><rect
         style="opacity:1;fill:#000000;fill-opacity:1;stroke:none;stroke-width:0.753017;stroke-linecap:round"
         id="rect22"
         width="50"
         height="90"
         x="178.87303"
         y="185.10281"
         inkscape:label="wheel-br"
         ry="4.9999933" /><rect
         style="opacity:1;fill:#000000;fill-opacity:1;stroke:none;stroke-width:0.753017;stroke-linecap:round"
         id="rect23"
         width="50"
         height="90"
         x="-36.126965"
         y="185.10281"
         inkscape:label="wheel-bl"
         ry="4.9999933" /><rect
         style="opacity:1;fill:#000000;fill-opacity:1;stroke:none;stroke-width:0.753017;stroke-linecap:round"
         id="rect21"
         width="50"
         height="90"
         x="178.87303"
         y="45.10281"
         inkscape:label="wheel-fr"
         ry="5.0000019" /><rect
         style="opacity:1;fill:#000000;fill-opacity:1;stroke:none;stroke-width:0.753017;stroke-linecap:round"
         id="rect20"
         width="50"
         height="90"
         x="-36.126965"
         y="45.10281"
         inkscape:label="wheel-fl"
         ry="5.0000019" /></g></g><g
     id="g38"
     inkscape:label="laptop"
     transform="translate(-4.309082e-7,22.49991)"><path
       id="rect35"
       style="fill:#000000;stroke:none;stroke-width:10;stroke-linecap:round;stroke-linejoin:round;stroke-dasharray:none"
       d="m 629.99979,4e-7 c -11.08,0 -19.99981,8.9198126 -19.99981,19.9998126 V 210.0001 229.99991 h 19.99981 300.00029 19.99981 V 210.0001 19.999813 C 949.99989,8.919813 941.08008,4e-7 930.00008,4e-7 Z" /><path
       id="rect36"
       style="fill:#000000;stroke:none;stroke-width:10;stroke-linecap:round;stroke-linejoin:round;stroke-dasharray:none"
       d="M 580,234.99991 579.99987,240 c -2.2e-4,8.31 6.68972,15 14.99972,15 123.33338,0 246.66677,-4.3e-4 370.00015,0 8.31,3e-5 14.99978,-6.69 15,-15 l 1.3e-4,-5.00009 H 964.99975 594.9996 Z"
       sodipodi:nodetypes="csssscccc" /><rect
       style="fill:#ffffff;stroke:none;stroke-width:10;stroke-linecap:round;stroke-linejoin:round;stroke-dasharray:none"
       id="rect37"
       width="310"
       height="200"
       x="625"
       y="14.999908"
       ry="0" /></g><path
     style="fill:#ffffff;stroke:#000000;stroke-width:5;stroke-linecap:round;stroke-linejoin:round;stroke-dasharray:15, 15;stroke-dashoffset:0;marker-start:url(#RoundedArrow);marker-end:url(#RoundedArrow)"
     d="M 300,149.99991 H 575"
     id="path38"
     sodipodi:nodetypes="cc" /><g
     id="g39"
     inkscape:label="bluetooth"
     transform="translate(12.5)"><rect
       style="fill:#ffffff;stroke:none;stroke-width:4.99999;stroke-linecap:round;stroke-linejoin:round;stroke-dasharray:15, 15;stroke-dashoffset:0"
       id="rect38"
       width="90"
       height="130"
       x="380"
       y="79.999901"
       ry="45" /><path
       id="rect24"
       style="fill:#4a9cc2;stroke-width:0.620691;stroke-linecap:round;stroke-linejoin:round"
       d="M 424.99998,79.654974 C 400.07,79.654974 380,99.724956 380,124.65497 v 40.34497 c 0,24.92999 20.07,44.99997 44.99998,44.99997 24.93003,0 45.00002,-20.06998 45.00002,-44.99997 V 124.65497 C 470,99.724956 449.93001,79.654974 424.99998,79.654974 Z m 6.5e-4,12.414324 a 3.1037594,3.1037594 0 0 1 2.1936,0.908684 l 24.82769,24.827698 a 3.1037594,3.1037594 0 0 1 0,4.38849 l -22.63343,22.63312 22.63343,22.63342 a 3.1037594,3.1037594 0 0 1 0,4.38851 l -24.82769,24.82768 a 3.1037594,3.1037594 0 0 1 -5.29751,-2.19426 v -42.16327 l -19.53019,19.52985 a 3.103449,3.103449 0 0 1 -4.38816,0 3.103449,3.103449 0 0 1 0,-4.38851 l 22.63309,-22.63342 -22.63309,-22.63312 a 3.103449,3.103449 0 0 1 0,-4.38849 3.103449,3.103449 0 0 1 4.38816,0 l 19.53019,19.52985 V 95.172232 a 3.1037594,3.1037594 0 0 1 1.91648,-2.867184 3.1037594,3.1037594 0 0 1 1.18743,-0.23575 z m 3.10292,10.594702 v 34.67153 l 17.33559,-17.3356 z m 0,49.65537 v 34.67121 l 17.33559,-17.33561 z"
       inkscape:label="path40" /></g><g
     id="g2"
     transform="matrix(2.8262071,0,0,2.8262071,-1346.4785,-319.16282)"><path
       style="fill:url(#linearGradient1478);fill-opacity:1;stroke-width:0.264583"
       d="m 752.23914,146.71356 c -1.21276,0.006 -2.37092,0.10906 -3.38998,0.28938 -3.00201,0.53036 -3.54707,1.64045 -3.54707,3.68764 v 2.70371 h 7.09414 v 0.90123 h -7.09414 -2.66237 c -2.06175,0 -3.86708,1.23924 -4.43177,3.59668 -0.65135,2.70218 -0.68024,4.38839 0,7.2099 0.50428,2.10022 1.70856,3.59668 3.77032,3.59668 h 2.43912 v -3.24115 c 0,-2.34153 2.02596,-4.40696 4.43177,-4.40696 h 7.08588 c 1.97245,0 3.54707,-1.62406 3.54707,-3.60495 v -6.75514 c 0,-1.92256 -1.62189,-3.36677 -3.54707,-3.68764 -1.21867,-0.20286 -2.48314,-0.29502 -3.6959,-0.28938 z m -3.83646,2.17454 c 0.73278,0 1.33119,0.60818 1.33119,1.35599 -10e-6,0.74516 -0.59841,1.34772 -1.33119,1.34772 -0.7354,0 -1.33118,-0.60256 -1.33118,-1.34772 0,-0.74781 0.59578,-1.35599 1.33118,-1.35599 z"
       id="path1948" /><path
       style="fill:url(#linearGradient1475);fill-opacity:1;stroke-width:0.264583"
       d="m 760.36681,154.29552 v 3.1502 c 0,2.4423 -2.0706,4.49791 -4.43177,4.49791 h -7.08588 c -1.94093,0 -3.54707,1.66119 -3.54707,3.60495 v 6.75515 c 0,1.92255 1.6718,3.05337 3.54707,3.60494 2.24561,0.6603 4.39903,0.77963 7.08588,0 1.78598,-0.5171 3.54707,-1.55776 3.54707,-3.60494 v -2.70371 h -7.08588 v -0.90124 h 7.08588 3.54707 c 2.06175,0 2.83005,-1.43812 3.54707,-3.59668 0.74065,-2.22221 0.70914,-4.35922 0,-7.2099 -0.50953,-2.05249 -1.48269,-3.59668 -3.54707,-3.59668 z m -3.98529,17.10697 c 0.7354,0 1.33119,0.60257 1.33119,1.34772 0,0.7478 -0.59579,1.35599 -1.33119,1.35599 -0.73278,0 -1.33118,-0.60819 -1.33118,-1.35599 0,-0.74515 0.5984,-1.34772 1.33118,-1.34772 z"
       id="path1950" /></g></svg>
